SplineFontDB: 3.2
FontName: Untitled1
FullName: Untitled1
FamilyName: Untitled1
Weight: Regular
Copyright: Copyright (c) 2021, Mohammad Reza
UComments: "2021-5-11: Created with FontForge (http://fontforge.org)"
Version: 001.000
ItalicAngle: 0
UnderlinePosition: -100
UnderlineWidth: 50
Ascent: 800
Descent: 200
InvalidEm: 0
LayerCount: 2
Layer: 0 0 "Back" 1
Layer: 1 0 "Fore" 0
XUID: [1021 841 671137566 800367]
StyleMap: 0x0000
FSType: 0
OS2Version: 0
OS2_WeightWidthSlopeOnly: 0
OS2_UseTypoMetrics: 1
CreationTime: 1620759267
ModificationTime: 1620761061
OS2TypoAscent: 0
OS2TypoAOffset: 1
OS2TypoDescent: 0
OS2TypoDOffset: 1
OS2TypoLinegap: 90
OS2WinAscent: 0
OS2WinAOffset: 1
OS2WinDescent: 0
OS2WinDOffset: 1
HheadAscent: 0
HheadAOffset: 1
HheadDescent: 0
HheadDOffset: 1
DEI: 91125
Encoding: ISO8859-1
UnicodeInterp: none
NameList: AGL For New Fonts
DisplaySize: -48
AntiAlias: 1
FitToEm: 0
WinInfo: 0 27 10
BeginChars: 256 46

StartChar: A
Encoding: 65 65 0
Width: 1000
Flags: H
LayerCount: 2
Fore
SplineSet
999.997070312 705.92578125 m 2
 999.997070312 258.340820312 l 1
 0.0029296875 258.340820312 l 1
 0.0029296875 705.92578125 l 2
 0.0029296875 758.04296875 41.9599609375 800 94.0771484375 800 c 2
 905.922851562 800 l 2
 958.040039062 800 999.997070312 758.04296875 999.997070312 705.92578125 c 2
999.997070312 175.00390625 m 1
 999.997070312 -105.919921875 l 2
 999.997070312 -158.037109375 958.040039062 -199.994140625 905.922851562 -199.994140625 c 2
 708.330078125 -199.994140625 l 1
 708.330078125 175.00390625 l 1
 999.997070312 175.00390625 l 1
624.999023438 175.00390625 m 1
 624.999023438 -199.994140625 l 1
 375.000976562 -199.994140625 l 1
 375.000976562 175.00390625 l 1
 624.999023438 175.00390625 l 1
291.6640625 175.00390625 m 1
 291.6640625 -199.994140625 l 1
 94.0771484375 -199.994140625 l 2
 41.9599609375 -199.994140625 0.0029296875 -158.037109375 0.0029296875 -105.919921875 c 2
 0.0029296875 175.00390625 l 1
 291.6640625 175.00390625 l 1
EndSplineSet
Validated: 524289
EndChar

StartChar: B
Encoding: 66 66 1
Width: 1000
Flags: H
LayerCount: 2
Fore
SplineSet
94.0771484375 800.002929688 m 2
 208.333007812 800.002929688 l 1
 208.333007812 341.668945312 l 1
 0.0029296875 341.668945312 l 1
 0.0029296875 705.928710938 l 2
 0.0029296875 758.045898438 41.9599609375 800.002929688 94.0771484375 800.002929688 c 2
291.6640625 800.002929688 m 1
 708.330078125 800.002929688 l 1
 708.330078125 -199.997070312 l 1
 291.6640625 -199.997070312 l 1
 291.6640625 258.337890625 l 1
 291.6640625 341.668945312 l 1
 291.6640625 800.002929688 l 1
791.666992188 800.002929688 m 1
 905.922851562 800.002929688 l 2
 958.040039062 800.002929688 999.997070312 758.045898438 999.997070312 705.928710938 c 2
 999.997070312 341.668945312 l 1
 791.666992188 341.668945312 l 1
 791.666992188 800.002929688 l 1
0.0029296875 258.337890625 m 1
 208.333007812 258.337890625 l 1
 208.333007812 -199.997070312 l 1
 94.0771484375 -199.997070312 l 2
 41.9599609375 -199.997070312 0.0029296875 -158.040039062 0.0029296875 -105.922851562 c 2
 0.0029296875 258.337890625 l 1
791.666992188 258.337890625 m 1
 999.997070312 258.337890625 l 1
 999.997070312 -105.922851562 l 2
 999.997070312 -158.040039062 958.040039062 -199.997070312 905.922851562 -199.997070312 c 2
 791.666992188 -199.997070312 l 1
 791.666992188 258.337890625 l 1
EndSplineSet
Validated: 524289
EndChar

StartChar: C
Encoding: 67 67 2
Width: 1000
Flags: H
LayerCount: 2
Fore
SplineSet
94.0771484375 800 m 2
 541.663085938 800 l 1
 541.663085938 -199.994140625 l 1
 94.0771484375 -199.994140625 l 2
 41.9599609375 -199.994140625 0.0029296875 -158.037109375 0.0029296875 -105.919921875 c 2
 0.0029296875 705.92578125 l 2
 0.0029296875 758.04296875 41.9599609375 800 94.0771484375 800 c 2
624.999023438 800 m 1
 905.922851562 800 l 2
 958.040039062 800 999.997070312 758.04296875 999.997070312 705.92578125 c 2
 999.997070312 -105.919921875 l 2
 999.997070312 -158.037109375 958.040039062 -199.994140625 905.922851562 -199.994140625 c 2
 624.999023438 -199.994140625 l 1
 624.999023438 800 l 1
701.221679688 471.453125 m 1
 701.221679688 128.552734375 l 1
 770.8125 128.552734375 l 2
 823.177734375 128.552734375 861.762695312 142.486328125 886.567382812 170.352539062 c 0
 911.372070312 198.219726562 923.774414062 241.321289062 923.774414062 299.658203125 c 0
 923.774414062 358.455078125 911.372070312 401.786132812 886.567382812 429.653320312 c 0
 861.762695312 457.520507812 823.177734375 471.453125 770.8125 471.453125 c 2
 701.221679688 471.453125 l 1
747.844726562 433.328125 m 1
 769.893554688 433.328125 l 2
 789.033203125 433.328125 805.493164062 430.954101562 819.2734375 426.208007812 c 0
 833.20703125 421.615234375 844.078125 414.41796875 851.88671875 404.619140625 c 0
 867.198242188 385.6328125 874.854492188 350.798828125 874.854492188 300.118164062 c 0
 874.854492188 249.58984375 867.122070312 214.756835938 851.657226562 195.6171875 c 0
 836.345703125 176.32421875 809.091796875 166.677734375 769.893554688 166.677734375 c 2
 747.844726562 166.677734375 l 1
 747.844726562 433.328125 l 1
EndSplineSet
Validated: 524289
EndChar

StartChar: a
Encoding: 97 97 3
Width: 1000
Flags: H
LayerCount: 2
Fore
SplineSet
94.07421875 800.002929688 m 2
 572.91796875 800.002929688 l 1
 572.91796875 -199.997070312 l 1
 94.07421875 -199.997070312 l 2
 41.95703125 -199.997070312 0 -158.040039062 0 -105.922851562 c 2
 0 705.928710938 l 2
 0 758.045898438 41.95703125 800.002929688 94.07421875 800.002929688 c 2
593.75 800.002929688 m 1
 905.92578125 800.002929688 l 2
 958.04296875 800.002929688 1000 758.045898438 1000 705.928710938 c 2
 1000 310.420898438 l 1
 593.75 310.420898438 l 1
 593.75 800.002929688 l 1
593.75 289.583984375 m 1
 677.080078125 289.583984375 l 1
 677.080078125 59.3779296875 l 1
 593.75 59.3779296875 l 1
 593.75 289.583984375 l 1
697.91796875 289.583984375 m 1
 781.248046875 289.583984375 l 1
 781.248046875 185.421875 l 1
 697.91796875 185.421875 l 1
 697.91796875 289.583984375 l 1
802.080078125 289.583984375 m 1
 1000 289.583984375 l 1
 1000 -105.922851562 l 2
 1000 -158.040039062 958.04296875 -199.997070312 905.92578125 -199.997070312 c 2
 802.080078125 -199.997070312 l 1
 802.080078125 289.583984375 l 1
697.91796875 164.584960938 m 1
 781.248046875 164.584960938 l 1
 781.248046875 59.3779296875 l 1
 697.91796875 59.3779296875 l 1
 697.91796875 164.584960938 l 1
593.75 38.546875 m 1
 781.248046875 38.546875 l 1
 781.248046875 -199.997070312 l 1
 593.75 -199.997070312 l 1
 593.75 38.546875 l 1
EndSplineSet
Validated: 524289
EndChar

StartChar: d
Encoding: 100 100 4
Width: 1000
Flags: H
LayerCount: 2
Fore
SplineSet
1000 705.928710938 m 2
 1000 560.419921875 l 1
 510.41796875 560.419921875 l 1
 510.41796875 800.002929688 l 1
 905.92578125 800.002929688 l 2
 958.04296875 800.002929688 1000 758.045898438 1000 705.928710938 c 2
1000 539.583007812 m 1
 1000 60.4169921875 l 1
 0 60.4169921875 l 1
 0 539.583007812 l 1
 1000 539.583007812 l 1
1000 39.5859375 m 1
 1000 -105.922851562 l 2
 1000 -158.040039062 958.04296875 -199.997070312 905.92578125 -199.997070312 c 2
 510.41796875 -199.997070312 l 1
 510.41796875 39.5859375 l 1
 1000 39.5859375 l 1
489.581054688 800.002929688 m 1
 489.581054688 560.419921875 l 1
 0 560.419921875 l 1
 0 705.928710938 l 2
 0 758.045898438 41.95703125 800.002929688 94.07421875 800.002929688 c 2
 489.581054688 800.002929688 l 1
489.581054688 39.5859375 m 1
 489.581054688 -199.997070312 l 1
 94.07421875 -199.997070312 l 2
 41.95703125 -199.997070312 0 -158.040039062 0 -105.922851562 c 2
 0 39.5859375 l 1
 489.581054688 39.5859375 l 1
EndSplineSet
Validated: 524289
EndChar

StartChar: D
Encoding: 68 68 5
Width: 1000
Flags: H
LayerCount: 2
Fore
SplineSet
94.0771484375 800.002929688 m 2
 541.66796875 800.002929688 l 1
 541.66796875 341.668945312 l 1
 541.66796875 341.668945312 l 1
 541.66796875 258.337890625 l 1
 541.66796875 258.337890625 l 1
 541.66796875 -199.997070312 l 1
 94.0771484375 -199.997070312 l 2
 41.9599609375 -199.997070312 0.0029296875 -158.040039062 0.0029296875 -105.922851562 c 2
 0.0029296875 705.928710938 l 2
 0.0029296875 758.045898438 41.9599609375 800.002929688 94.0771484375 800.002929688 c 2
624.999023438 800.002929688 m 1
 905.922851562 800.002929688 l 2
 958.040039062 800.002929688 999.997070312 758.045898438 999.997070312 705.928710938 c 2
 999.997070312 341.668945312 l 1
 624.999023438 341.668945312 l 1
 624.999023438 800.002929688 l 1
624.999023438 258.337890625 m 1
 749.999023438 258.337890625 l 1
 749.999023438 -199.997070312 l 1
 624.999023438 -199.997070312 l 1
 624.999023438 258.337890625 l 1
833.329101562 258.337890625 m 1
 999.997070312 258.337890625 l 1
 999.997070312 91.669921875 l 1
 833.329101562 91.669921875 l 1
 833.329101562 258.337890625 l 1
833.329101562 8.333984375 m 1
 999.997070312 8.333984375 l 1
 999.997070312 -105.922851562 l 2
 999.997070312 -158.040039062 958.040039062 -199.997070312 905.922851562 -199.997070312 c 2
 833.329101562 -199.997070312 l 1
 833.329101562 8.333984375 l 1
EndSplineSet
Validated: 524289
EndChar

StartChar: E
Encoding: 69 69 6
Width: 1000
Flags: H
LayerCount: 2
Fore
SplineSet
94.07421875 800.002929688 m 2
 291.666992188 800.002929688 l 1
 291.666992188 508.3359375 l 1
 0 508.3359375 l 1
 0 705.928710938 l 2
 0 758.045898438 41.95703125 800.002929688 94.07421875 800.002929688 c 2
375.00390625 800.002929688 m 1
 625.001953125 800.002929688 l 1
 625.001953125 508.3359375 l 1
 375.00390625 508.3359375 l 1
 375.00390625 800.002929688 l 1
708.333007812 800.002929688 m 1
 905.92578125 800.002929688 l 2
 958.04296875 800.002929688 1000 758.045898438 1000 705.928710938 c 2
 1000 341.668945312 l 1
 708.333007812 341.668945312 l 1
 708.333007812 800.002929688 l 1
0 425.004882812 m 1
 291.666992188 425.004882812 l 1
 291.666992188 175.006835938 l 1
 0 175.006835938 l 1
 0 425.004882812 l 1
375.00390625 425.004882812 m 1
 625.001953125 425.004882812 l 1
 625.001953125 175.006835938 l 1
 375.00390625 175.006835938 l 1
 375.00390625 425.004882812 l 1
708.333007812 258.337890625 m 1
 1000 258.337890625 l 1
 1000 -105.922851562 l 2
 1000 -158.040039062 958.04296875 -199.997070312 905.92578125 -199.997070312 c 2
 708.333007812 -199.997070312 l 1
 708.333007812 258.337890625 l 1
0 91.669921875 m 1
 291.666992188 91.669921875 l 1
 291.666992188 -199.997070312 l 1
 94.07421875 -199.997070312 l 2
 41.95703125 -199.997070312 0 -158.040039062 0 -105.922851562 c 2
 0 91.669921875 l 1
375.00390625 91.669921875 m 1
 625.001953125 91.669921875 l 1
 625.001953125 -199.997070312 l 1
 375.00390625 -199.997070312 l 1
 375.00390625 91.669921875 l 1
EndSplineSet
Validated: 524289
EndChar

StartChar: F
Encoding: 70 70 7
Width: 1000
Flags: H
LayerCount: 2
Fore
SplineSet
94.0771484375 800 m 2
 541.662109375 800 l 1
 541.662109375 -199.994140625 l 1
 94.0771484375 -199.994140625 l 2
 41.9599609375 -199.994140625 0.0029296875 -158.037109375 0.0029296875 -105.919921875 c 2
 0.0029296875 705.92578125 l 2
 0.0029296875 758.04296875 41.9599609375 800 94.0771484375 800 c 2
624.999023438 800 m 1
 905.922851562 800 l 2
 958.040039062 800 999.997070312 758.04296875 999.997070312 705.92578125 c 2
 999.997070312 508.333007812 l 1
 624.999023438 508.333007812 l 1
 624.999023438 800 l 1
624.999023438 425.001953125 m 1
 999.997070312 425.001953125 l 1
 999.997070312 175.00390625 l 1
 624.999023438 175.00390625 l 1
 624.999023438 425.001953125 l 1
624.999023438 91.6669921875 m 1
 999.997070312 91.6669921875 l 1
 999.997070312 -105.919921875 l 2
 999.997070312 -158.037109375 958.040039062 -199.994140625 905.922851562 -199.994140625 c 2
 624.999023438 -199.994140625 l 1
 624.999023438 91.6669921875 l 1
EndSplineSet
Validated: 524289
EndChar

StartChar: G
Encoding: 71 71 8
Width: 1000
Flags: H
LayerCount: 2
Fore
SplineSet
94.07421875 800 m 2
 905.92578125 800 l 2
 958.04296875 800 1000 758.04296875 1000 705.92578125 c 2
 1000 -105.919921875 l 2
 1000 -158.037109375 958.04296875 -199.994140625 905.92578125 -199.994140625 c 2
 94.07421875 -199.994140625 l 2
 41.95703125 -199.994140625 -0 -158.037109375 -0 -105.919921875 c 2
 -0 705.92578125 l 2
 -0 758.04296875 41.95703125 800 94.07421875 800 c 2
263.56640625 633.337890625 m 1
 263.56640625 -33.33203125 l 1
 346.622070312 -33.33203125 l 1
 346.622070312 555.639648438 l 1
 465.844726562 204.223632812 l 1
 534.161132812 204.223632812 l 1
 652.935546875 555.639648438 l 1
 652.935546875 -33.33203125 l 1
 736.439453125 -33.33203125 l 1
 736.439453125 633.337890625 l 1
 615.430664062 633.337890625 l 1
 499.331054688 293.974609375 l 1
 384.126953125 633.337890625 l 1
 263.56640625 633.337890625 l 1
EndSplineSet
Validated: 524289
EndChar

StartChar: H
Encoding: 72 72 9
Width: 1000
Flags: H
LayerCount: 2
Fore
SplineSet
905.922851562 -199.994140625 m 2
 458.337890625 -199.994140625 l 1
 458.337890625 800 l 1
 905.922851562 800 l 2
 958.040039062 800 999.997070312 758.04296875 999.997070312 705.92578125 c 2
 999.997070312 -105.919921875 l 2
 999.997070312 -158.037109375 958.040039062 -199.994140625 905.922851562 -199.994140625 c 2
375.000976562 -199.994140625 m 1
 94.0771484375 -199.994140625 l 2
 41.9599609375 -199.994140625 0.0029296875 -158.037109375 0.0029296875 -105.919921875 c 2
 0.0029296875 91.6728515625 l 1
 375.000976562 91.6728515625 l 1
 375.000976562 -199.994140625 l 1
375.000976562 175.00390625 m 1
 0.0029296875 175.00390625 l 1
 0.0029296875 425.001953125 l 1
 375.000976562 425.001953125 l 1
 375.000976562 175.00390625 l 1
375.000976562 508.338867188 m 1
 0.0029296875 508.338867188 l 1
 0.0029296875 705.92578125 l 2
 0.0029296875 758.04296875 41.9599609375 800 94.0771484375 800 c 2
 375.000976562 800 l 1
 375.000976562 508.338867188 l 1
EndSplineSet
Validated: 524289
EndChar

StartChar: I
Encoding: 73 73 10
Width: 1000
Flags: H
LayerCount: 2
Fore
SplineSet
94.0771484375 800.002929688 m 2
 541.66796875 800.002929688 l 1
 541.66796875 -199.997070312 l 1
 94.0771484375 -199.997070312 l 2
 41.9599609375 -199.997070312 0.0029296875 -158.040039062 0.0029296875 -105.922851562 c 2
 0.0029296875 705.928710938 l 2
 0.0029296875 758.045898438 41.9599609375 800.002929688 94.0771484375 800.002929688 c 2
624.999023438 800.002929688 m 1
 905.922851562 800.002929688 l 2
 958.040039062 800.002929688 999.997070312 758.045898438 999.997070312 705.928710938 c 2
 999.997070312 341.668945312 l 1
 624.999023438 341.668945312 l 1
 624.999023438 800.002929688 l 1
624.999023438 258.337890625 m 1
 739.583007812 258.337890625 l 1
 739.583007812 91.669921875 l 1
 624.999023438 91.669921875 l 1
 624.999023438 258.337890625 l 1
822.9140625 258.337890625 m 1
 999.997070312 258.337890625 l 1
 999.997070312 -105.922851562 l 2
 999.997070312 -158.040039062 958.040039062 -199.997070312 905.922851562 -199.997070312 c 2
 822.9140625 -199.997070312 l 1
 822.9140625 258.337890625 l 1
624.999023438 8.333984375 m 1
 739.583007812 8.333984375 l 1
 739.583007812 -199.997070312 l 1
 624.999023438 -199.997070312 l 1
 624.999023438 8.333984375 l 1
EndSplineSet
Validated: 524289
EndChar

StartChar: J
Encoding: 74 74 11
Width: 1000
Flags: H
LayerCount: 2
Fore
SplineSet
94.07421875 800.002929688 m 2
 541.665039062 800.002929688 l 1
 541.665039062 341.668945312 l 1
 541.665039062 258.337890625 l 1
 541.665039062 -199.997070312 l 1
 94.07421875 -199.997070312 l 2
 41.95703125 -199.997070312 0 -158.040039062 0 -105.922851562 c 2
 0 705.928710938 l 2
 0 758.045898438 41.95703125 800.002929688 94.07421875 800.002929688 c 2
625.001953125 800.002929688 m 1
 905.92578125 800.002929688 l 2
 958.04296875 800.002929688 1000 758.045898438 1000 705.928710938 c 2
 1000 341.668945312 l 1
 625.001953125 341.668945312 l 1
 625.001953125 800.002929688 l 1
625.001953125 258.337890625 m 1
 666.6640625 258.337890625 l 1
 666.6640625 8.333984375 l 1
 625.001953125 8.333984375 l 1
 625.001953125 258.337890625 l 1
750.000976562 258.337890625 m 1
 1000 258.337890625 l 1
 1000 175.000976562 l 1
 750.000976562 175.000976562 l 1
 750.000976562 258.337890625 l 1
750.000976562 91.6640625 m 1
 833.33203125 91.6640625 l 1
 833.33203125 8.333984375 l 1
 750.000976562 8.333984375 l 1
 750.000976562 91.6640625 l 1
916.668945312 91.6640625 m 1
 1000 91.6640625 l 1
 1000 -105.922851562 l 2
 1000 -154.404296875 963.6875 -194.075195312 916.668945312 -199.376953125 c 1
 916.668945312 91.6640625 l 1
625.001953125 -74.9970703125 m 1
 833.33203125 -74.9970703125 l 1
 833.33203125 -199.997070312 l 1
 625.001953125 -199.997070312 l 1
 625.001953125 -74.9970703125 l 1
EndSplineSet
Validated: 524289
EndChar

StartChar: K
Encoding: 75 75 12
Width: 1000
Flags: H
LayerCount: 2
Fore
SplineSet
94.0771484375 800.002929688 m 2
 905.922851562 800.002929688 l 2
 958.040039062 800.002929688 999.997070312 758.045898438 999.997070312 705.928710938 c 2
 999.997070312 258.337890625 l 1
 0.0029296875 258.337890625 l 1
 0.0029296875 705.928710938 l 2
 0.0029296875 758.045898438 41.9599609375 800.002929688 94.0771484375 800.002929688 c 2
0.0029296875 175.000976562 m 1
 999.997070312 175.000976562 l 1
 999.997070312 50.001953125 l 1
 0.0029296875 50.001953125 l 1
 0.0029296875 175.000976562 l 1
0.0029296875 -33.3291015625 m 1
 999.997070312 -33.3291015625 l 1
 999.997070312 -105.922851562 l 2
 999.997070312 -158.040039062 958.040039062 -199.997070312 905.922851562 -199.997070312 c 2
 94.0771484375 -199.997070312 l 2
 41.9599609375 -199.997070312 0.0029296875 -158.040039062 0.0029296875 -105.922851562 c 2
 0.0029296875 -33.3291015625 l 1
EndSplineSet
Validated: 524289
EndChar

StartChar: L
Encoding: 76 76 13
Width: 1000
Flags: H
LayerCount: 2
Fore
SplineSet
0 -105.919921875 m 2
 0 8.3359375 l 1
 458.333984375 8.3359375 l 1
 458.333984375 -199.994140625 l 1
 94.07421875 -199.994140625 l 2
 41.95703125 -199.994140625 0 -158.037109375 0 -105.919921875 c 2
0 91.6669921875 m 1
 0 508.333007812 l 1
 1000 508.333007812 l 1
 1000 91.6669921875 l 1
 541.665039062 91.6669921875 l 1
 458.333984375 91.6669921875 l 1
 0 91.6669921875 l 1
0 591.669921875 m 1
 0 705.92578125 l 2
 0 758.04296875 41.95703125 800 94.07421875 800 c 2
 458.333984375 800 l 1
 458.333984375 591.669921875 l 1
 0 591.669921875 l 1
541.665039062 -199.994140625 m 1
 541.665039062 8.3359375 l 1
 1000 8.3359375 l 1
 1000 -105.919921875 l 2
 1000 -158.037109375 958.04296875 -199.994140625 905.92578125 -199.994140625 c 2
 541.665039062 -199.994140625 l 1
541.665039062 591.669921875 m 1
 541.665039062 800 l 1
 905.92578125 800 l 2
 958.04296875 800 1000 758.04296875 1000 705.92578125 c 2
 1000 591.669921875 l 1
 541.665039062 591.669921875 l 1
EndSplineSet
Validated: 524289
EndChar

StartChar: M
Encoding: 77 77 14
Width: 1000
Flags: H
LayerCount: 2
Fore
SplineSet
1000.00195312 705.92578125 m 2
 999.999023438 237.497070312 l 1
 -0 237.502929688 l 1
 0.0029296875 705.931640625 l 2
 0.0029296875 758.048828125 41.9599609375 800.005859375 94.0771484375 800.004882812 c 2
 905.928710938 800 l 2
 958.045898438 800 1000.00292969 758.04296875 1000.00195312 705.92578125 c 2
999.999023438 195.834960938 m 1
 999.997070312 -105.92578125 l 2
 999.997070312 -158.04296875 958.040039062 -200 905.922851562 -199.999023438 c 2
 687.493164062 -199.998046875 l 1
 687.495117188 195.836914062 l 1
 999.999023438 195.834960938 l 1
645.833007812 195.836914062 m 1
 645.830078125 -199.998046875 l 1
 354.163085938 -199.99609375 l 1
 354.166015625 195.838867188 l 1
 645.833007812 195.836914062 l 1
312.498046875 195.838867188 m 1
 312.495117188 -199.99609375 l 1
 94.0712890625 -199.994140625 l 2
 41.9541015625 -199.994140625 -0.0029296875 -158.037109375 -0.001953125 -105.919921875 c 2
 -0 195.840820312 l 1
 312.498046875 195.838867188 l 1
EndSplineSet
Validated: 524321
EndChar

StartChar: N
Encoding: 78 78 15
Width: 1000
Flags: H
LayerCount: 2
Fore
SplineSet
94.07421875 800.002929688 m 2
 229.166992188 800.002929688 l 1
 229.166992188 320.836914062 l 1
 0 320.836914062 l 1
 0 705.928710938 l 2
 0 758.045898438 41.95703125 800.002929688 94.07421875 800.002929688 c 2
270.830078125 800.002929688 m 1
 729.1640625 800.002929688 l 1
 729.1640625 -199.997070312 l 1
 270.830078125 -199.997070312 l 1
 270.830078125 800.002929688 l 1
770.83203125 800.002929688 m 1
 905.92578125 800.002929688 l 2
 958.04296875 800.002929688 1000 758.045898438 1000 705.928710938 c 2
 1000 320.836914062 l 1
 770.83203125 320.836914062 l 1
 770.83203125 800.002929688 l 1
0 279.168945312 m 1
 229.166992188 279.168945312 l 1
 229.166992188 -199.997070312 l 1
 94.07421875 -199.997070312 l 2
 41.95703125 -199.997070312 0 -158.040039062 0 -105.922851562 c 2
 0 279.168945312 l 1
770.83203125 279.168945312 m 1
 1000 279.168945312 l 1
 1000 -105.922851562 l 2
 1000 -158.040039062 958.04296875 -199.997070312 905.92578125 -199.997070312 c 2
 770.83203125 -199.997070312 l 1
 770.83203125 279.168945312 l 1
EndSplineSet
Validated: 524289
EndChar

StartChar: O
Encoding: 79 79 16
Width: 1000
Flags: H
LayerCount: 2
Fore
SplineSet
94.07421875 800.002929688 m 2
 562.497070312 800.002929688 l 1
 562.497070312 -199.997070312 l 1
 94.07421875 -199.997070312 l 2
 41.95703125 -199.997070312 0 -158.040039062 0 -105.922851562 c 2
 0 705.928710938 l 2
 0 758.045898438 41.95703125 800.002929688 94.07421875 800.002929688 c 2
604.165039062 800.002929688 m 1
 905.92578125 800.002929688 l 2
 958.04296875 800.002929688 1000 758.045898438 1000 705.928710938 c 2
 1000 -105.922851562 l 2
 1000 -158.040039062 958.04296875 -199.997070312 905.92578125 -199.997070312 c 2
 604.165039062 -199.997070312 l 1
 604.165039062 800.002929688 l 1
690.802734375 471.450195312 m 1
 690.802734375 128.549804688 l 1
 760.393554688 128.549804688 l 2
 812.759765625 128.549804688 851.344726562 142.483398438 876.149414062 170.349609375 c 0
 900.954101562 198.216796875 913.35546875 241.319335938 913.35546875 299.655273438 c 0
 913.35546875 358.452148438 900.954101562 401.783203125 876.149414062 429.650390625 c 0
 851.344726562 457.516601562 812.759765625 471.450195312 760.393554688 471.450195312 c 2
 690.802734375 471.450195312 l 1
737.426757812 433.325195312 m 1
 759.475585938 433.325195312 l 2
 778.615234375 433.325195312 795.07421875 430.952148438 808.854492188 426.205078125 c 0
 822.788085938 421.611328125 833.659179688 414.415039062 841.46875 404.616210938 c 0
 856.779296875 385.629882812 864.435546875 350.795898438 864.435546875 300.115234375 c 0
 864.435546875 249.586914062 856.703125 214.752929688 841.239257812 195.614257812 c 0
 825.926757812 176.321289062 798.672851562 166.674804688 759.475585938 166.674804688 c 2
 737.426757812 166.674804688 l 1
 737.426757812 433.325195312 l 1
EndSplineSet
Validated: 524289
EndChar

StartChar: P
Encoding: 80 80 17
Width: 1000
Flags: H
LayerCount: 2
Fore
SplineSet
94.07421875 800.002929688 m 2
 562.501953125 800.002929688 l 1
 562.501953125 -199.997070312 l 1
 94.07421875 -199.997070312 l 2
 41.95703125 -199.997070312 0 -158.040039062 0 -105.922851562 c 2
 0 705.928710938 l 2
 0 758.045898438 41.95703125 800.002929688 94.07421875 800.002929688 c 2
604.165039062 800.002929688 m 1
 905.92578125 800.002929688 l 2
 958.041992188 800.002929688 1000 758.045898438 1000 705.928710938 c 2
 1000 320.836914062 l 1
 604.165039062 320.836914062 l 1
 604.165039062 800.002929688 l 1
604.165039062 279.168945312 m 1
 770.833007812 279.168945312 l 1
 770.833007812 -199.997070312 l 1
 604.165039062 -199.997070312 l 1
 604.165039062 279.168945312 l 1
812.5 279.168945312 m 1
 1000 279.168945312 l 1
 1000 70.8330078125 l 1
 812.5 70.8330078125 l 1
 812.5 279.168945312 l 1
812.5 29.169921875 m 1
 875 29.169921875 l 1
 875 -199.997070312 l 1
 812.5 -199.997070312 l 1
 812.5 29.169921875 l 1
916.668945312 29.169921875 m 1
 1000 29.169921875 l 1
 1000 -54.1669921875 l 1
 916.668945312 -54.1669921875 l 1
 916.668945312 29.169921875 l 1
916.668945312 -95.8291015625 m 1
 1000 -95.8291015625 l 1
 1000 -105.922851562 l 2
 1000 -154.404296875 963.686523438 -194.075195312 916.668945312 -199.376953125 c 1
 916.668945312 -95.8291015625 l 1
EndSplineSet
Validated: 524289
EndChar

StartChar: Q
Encoding: 81 81 18
Width: 1000
Flags: H
LayerCount: 2
Fore
SplineSet
94.07421875 800.002929688 m 2
 312.498046875 800.002929688 l 1
 312.498046875 487.499023438 l 1
 0 487.499023438 l 1
 0 705.928710938 l 2
 0 758.045898438 41.95703125 800.002929688 94.07421875 800.002929688 c 2
354.166992188 800.002929688 m 1
 645.833984375 800.002929688 l 1
 645.833984375 487.499023438 l 1
 354.166992188 487.499023438 l 1
 354.166992188 800.002929688 l 1
687.501953125 800.002929688 m 1
 905.92578125 800.002929688 l 2
 958.04296875 800.002929688 1000 758.045898438 1000 705.928710938 c 2
 1000 320.836914062 l 1
 687.501953125 320.836914062 l 1
 687.501953125 800.002929688 l 1
0 445.8359375 m 1
 312.498046875 445.8359375 l 1
 312.498046875 154.168945312 l 1
 0 154.168945312 l 1
 0 445.8359375 l 1
354.166992188 445.8359375 m 1
 645.833984375 445.8359375 l 1
 645.833984375 154.168945312 l 1
 354.166992188 154.168945312 l 1
 354.166992188 445.8359375 l 1
687.501953125 279.168945312 m 1
 1000 279.168945312 l 1
 1000 -105.922851562 l 2
 1000 -158.040039062 958.04296875 -199.997070312 905.92578125 -199.997070312 c 2
 687.501953125 -199.997070312 l 1
 687.501953125 279.168945312 l 1
0 112.500976562 m 1
 312.498046875 112.500976562 l 1
 312.498046875 -199.997070312 l 1
 94.07421875 -199.997070312 l 2
 41.95703125 -199.997070312 0 -158.040039062 0 -105.922851562 c 2
 0 112.500976562 l 1
354.166992188 112.500976562 m 1
 645.833984375 112.500976562 l 1
 645.833984375 -199.997070312 l 1
 354.166992188 -199.997070312 l 1
 354.166992188 112.500976562 l 1
EndSplineSet
Validated: 524289
EndChar

StartChar: R
Encoding: 82 82 19
Width: 1000
Flags: H
LayerCount: 2
Fore
SplineSet
94.07421875 800.002929688 m 2
 562.502929688 800.002929688 l 1
 562.502929688 -199.997070312 l 1
 94.07421875 -199.997070312 l 2
 41.95703125 -199.997070312 0 -158.040039062 0 -105.922851562 c 2
 0 705.928710938 l 2
 0 758.045898438 41.95703125 800.002929688 94.07421875 800.002929688 c 2
604.165039062 800.002929688 m 1
 905.92578125 800.002929688 l 2
 958.04296875 800.002929688 1000 758.045898438 1000 705.928710938 c 2
 1000 487.499023438 l 1
 604.165039062 487.499023438 l 1
 604.165039062 800.002929688 l 1
604.165039062 445.8359375 m 1
 1000 445.8359375 l 1
 1000 154.168945312 l 1
 604.165039062 154.168945312 l 1
 604.165039062 445.8359375 l 1
604.165039062 112.500976562 m 1
 1000 112.500976562 l 1
 1000 -105.922851562 l 2
 1000 -158.040039062 958.04296875 -199.997070312 905.92578125 -199.997070312 c 2
 604.165039062 -199.997070312 l 1
 604.165039062 112.500976562 l 1
EndSplineSet
Validated: 524289
EndChar

StartChar: S
Encoding: 83 83 20
Width: 1000
Flags: H
LayerCount: 2
Fore
SplineSet
94.07421875 800 m 2
 905.92578125 800 l 2
 958.04296875 800 1000 758.04296875 1000 705.92578125 c 2
 1000 -105.919921875 l 2
 1000 -158.037109375 958.04296875 -199.994140625 905.92578125 -199.994140625 c 2
 94.07421875 -199.994140625 l 2
 41.95703125 -199.994140625 0 -158.037109375 0 -105.919921875 c 2
 0 705.92578125 l 2
 0 758.04296875 41.95703125 800 94.07421875 800 c 2
263.56640625 633.337890625 m 1
 263.56640625 -33.33203125 l 1
 346.622070312 -33.33203125 l 1
 346.622070312 555.639648438 l 1
 465.844726562 204.223632812 l 1
 534.161132812 204.223632812 l 1
 652.935546875 555.639648438 l 1
 652.935546875 -33.33203125 l 1
 736.439453125 -33.33203125 l 1
 736.439453125 633.337890625 l 1
 615.430664062 633.337890625 l 1
 499.331054688 293.974609375 l 1
 384.126953125 633.337890625 l 1
 263.56640625 633.337890625 l 1
EndSplineSet
Validated: 524289
EndChar

StartChar: T
Encoding: 84 84 21
Width: 1000
Flags: H
LayerCount: 2
Fore
SplineSet
905.92578125 -199.997070312 m 2
 437.497070312 -199.997070312 l 1
 437.498046875 800.002929688 l 1
 905.926757812 800.001953125 l 2
 958.043945312 800.001953125 1000.00097656 758.044921875 1000 705.928710938 c 2
 999.999023438 -105.923828125 l 2
 999.999023438 -158.041015625 958.041992188 -199.997070312 905.92578125 -199.997070312 c 2
395.833984375 -199.997070312 m 1
 94.0732421875 -199.99609375 l 2
 41.9560546875 -199.99609375 -0.0009765625 -158.0390625 -0 -105.921875 c 2
 -0 112.5078125 l 1
 395.833984375 112.506835938 l 1
 395.833984375 -199.997070312 l 1
395.833984375 154.169921875 m 1
 -0 154.169921875 l 1
 0 445.836914062 l 1
 395.834960938 445.836914062 l 1
 395.833984375 154.169921875 l 1
395.834960938 487.504882812 m 1
 0 487.505859375 l 1
 0.0009765625 705.9296875 l 2
 0.0009765625 758.046875 41.9580078125 800.00390625 94.07421875 800.002929688 c 2
 395.834960938 800.002929688 l 1
 395.834960938 487.504882812 l 1
EndSplineSet
Validated: 524321
EndChar

StartChar: U
Encoding: 85 85 22
Width: 1000
Flags: H
LayerCount: 2
Fore
SplineSet
94.0771484375 800.002929688 m 2
 562.5 800.002929688 l 1
 562.5 -199.997070312 l 1
 94.0771484375 -199.997070312 l 2
 41.9599609375 -199.997070312 0.0029296875 -158.040039062 0.0029296875 -105.922851562 c 2
 0.0029296875 705.928710938 l 2
 0.0029296875 758.045898438 41.9599609375 800.002929688 94.0771484375 800.002929688 c 2
604.16796875 800.002929688 m 1
 905.922851562 800.002929688 l 2
 958.040039062 800.002929688 999.997070312 758.045898438 999.997070312 705.928710938 c 2
 999.997070312 320.836914062 l 1
 604.16796875 320.836914062 l 1
 604.16796875 800.002929688 l 1
604.16796875 279.168945312 m 1
 666.66796875 279.168945312 l 1
 666.66796875 70.8330078125 l 1
 604.16796875 70.8330078125 l 1
 604.16796875 279.168945312 l 1
708.330078125 279.168945312 m 1
 772.569335938 279.168945312 l 1
 772.569335938 195.83203125 l 1
 708.330078125 195.83203125 l 1
 708.330078125 279.168945312 l 1
814.232421875 279.168945312 m 1
 999.997070312 279.168945312 l 1
 999.997070312 -105.922851562 l 2
 999.997070312 -158.040039062 958.040039062 -199.997070312 905.922851562 -199.997070312 c 2
 814.232421875 -199.997070312 l 1
 814.232421875 279.168945312 l 1
708.330078125 154.168945312 m 1
 772.569335938 154.168945312 l 1
 772.569335938 70.8330078125 l 1
 708.330078125 70.8330078125 l 1
 708.330078125 154.168945312 l 1
604.16796875 29.169921875 m 1
 772.569335938 29.169921875 l 1
 772.569335938 -199.997070312 l 1
 604.16796875 -199.997070312 l 1
 604.16796875 29.169921875 l 1
EndSplineSet
Validated: 524289
EndChar

StartChar: V
Encoding: 86 86 23
Width: 1000
Flags: H
LayerCount: 2
Fore
SplineSet
94.0771484375 800.002929688 m 2
 561.282226562 800.002929688 l 1
 561.282226562 -199.997070312 l 1
 94.0771484375 -199.997070312 l 2
 41.9599609375 -199.997070312 0.0029296875 -158.040039062 0.0029296875 -105.922851562 c 2
 0.0029296875 705.928710938 l 2
 0.0029296875 758.045898438 41.9599609375 800.002929688 94.0771484375 800.002929688 c 2
602.950195312 800.002929688 m 1
 905.922851562 800.002929688 l 2
 958.040039062 800.002929688 999.997070312 758.045898438 999.997070312 705.928710938 c 2
 999.997070312 320.836914062 l 1
 602.950195312 320.836914062 l 1
 602.950195312 800.002929688 l 1
602.950195312 279.168945312 m 1
 687.499023438 279.168945312 l 1
 687.499023438 -12.498046875 l 1
 602.950195312 -12.498046875 l 1
 602.950195312 279.168945312 l 1
729.166992188 279.168945312 m 1
 999.997070312 279.168945312 l 1
 999.997070312 154.168945312 l 1
 729.166992188 154.168945312 l 1
 729.166992188 279.168945312 l 1
729.166992188 112.500976562 m 1
 854.166015625 112.500976562 l 1
 854.166015625 -12.498046875 l 1
 729.166992188 -12.498046875 l 1
 729.166992188 112.500976562 l 1
895.834960938 112.500976562 m 1
 999.997070312 112.500976562 l 1
 999.997070312 -105.922851562 l 2
 999.997070312 -158.040039062 958.040039062 -199.997070312 905.922851562 -199.997070312 c 2
 895.834960938 -199.997070312 l 1
 895.834960938 112.500976562 l 1
602.950195312 -54.1669921875 m 1
 854.166015625 -54.1669921875 l 1
 854.166015625 -199.997070312 l 1
 602.950195312 -199.997070312 l 1
 602.950195312 -54.1669921875 l 1
EndSplineSet
Validated: 524289
EndChar

StartChar: W
Encoding: 87 87 24
Width: 1000
Flags: H
LayerCount: 2
Fore
SplineSet
94.0771484375 800.002929688 m 2
 905.922851562 800.002929688 l 2
 958.040039062 800.002929688 999.997070312 758.045898438 999.997070312 705.928710938 c 2
 999.997070312 237.5 l 1
 0.0029296875 237.5 l 1
 0.0029296875 705.928710938 l 2
 0.0029296875 758.045898438 41.9599609375 800.002929688 94.0771484375 800.002929688 c 2
0.0029296875 195.83203125 m 1
 999.997070312 195.83203125 l 1
 999.997070312 29.169921875 l 1
 0.0029296875 29.169921875 l 1
 0.0029296875 195.83203125 l 1
0.0029296875 -12.498046875 m 1
 999.997070312 -12.498046875 l 1
 999.997070312 -105.922851562 l 2
 999.997070312 -158.040039062 958.040039062 -199.997070312 905.922851562 -199.997070312 c 2
 94.0771484375 -199.997070312 l 2
 41.9599609375 -199.997070312 0.0029296875 -158.040039062 0.0029296875 -105.922851562 c 2
 0.0029296875 -12.498046875 l 1
EndSplineSet
Validated: 524289
EndChar

StartChar: X
Encoding: 88 88 25
Width: 1000
Flags: H
LayerCount: 2
Fore
SplineSet
-0 -105.923828125 m 2
 0.0009765625 29.169921875 l 1
 479.165039062 29.169921875 l 1
 479.166015625 -199.99609375 l 1
 94.07421875 -199.99609375 l 2
 41.95703125 -199.99609375 0.0009765625 -158.040039062 -0 -105.923828125 c 2
0.0009765625 70.8330078125 m 1
 0.0009765625 529.166992188 l 1
 999.999023438 529.166992188 l 1
 1000 70.8330078125 l 1
 0.0009765625 70.8330078125 l 1
0.0009765625 570.834960938 m 1
 -0 705.928710938 l 2
 -0 758.045898438 41.95703125 800.001953125 94.07421875 800.001953125 c 2
 479.165039062 800.001953125 l 1
 479.166015625 570.834960938 l 1
 0.0009765625 570.834960938 l 1
520.834960938 -199.99609375 m 1
 520.833984375 29.169921875 l 1
 1000 29.169921875 l 1
 1000 -105.922851562 l 2
 1000 -158.040039062 958.04296875 -199.99609375 905.92578125 -199.99609375 c 2
 520.834960938 -199.99609375 l 1
520.833984375 570.834960938 m 1
 520.833984375 800.001953125 l 1
 905.92578125 800.001953125 l 2
 958.04296875 800.001953125 999.999023438 758.045898438 1000 705.9296875 c 2
 999.999023438 570.834960938 l 1
 520.833984375 570.834960938 l 1
EndSplineSet
Validated: 524289
EndChar

StartChar: Y
Encoding: 89 89 26
Width: 1000
Flags: H
LayerCount: 2
Fore
SplineSet
1000 705.92578125 m 2
 1000 227.087890625 l 1
 0 227.087890625 l 1
 0 705.92578125 l 2
 0 758.04296875 41.95703125 800 94.07421875 800 c 2
 905.92578125 800 l 2
 958.04296875 800 1000 758.04296875 1000 705.92578125 c 2
1000 206.250976562 m 1
 1000 -105.919921875 l 2
 1000 -158.037109375 958.04296875 -199.994140625 905.92578125 -199.994140625 c 2
 677.080078125 -199.994140625 l 1
 677.080078125 206.250976562 l 1
 1000 206.250976562 l 1
656.249023438 206.250976562 m 1
 656.249023438 -199.994140625 l 1
 343.750976562 -199.994140625 l 1
 343.750976562 206.250976562 l 1
 656.249023438 206.250976562 l 1
322.919921875 206.250976562 m 1
 322.919921875 -199.994140625 l 1
 94.07421875 -199.994140625 l 2
 41.95703125 -199.994140625 0 -158.037109375 0 -105.919921875 c 2
 0 206.250976562 l 1
 322.919921875 206.250976562 l 1
EndSplineSet
Validated: 524289
EndChar

StartChar: Z
Encoding: 90 90 27
Width: 1014
Flags: H
LayerCount: 2
Fore
SplineSet
94.07421875 800.002929688 m 2
 239.583007812 800.002929688 l 1
 239.583007812 310.420898438 l 1
 0 310.420898438 l 1
 0 705.928710938 l 2
 0 758.045898438 41.95703125 800.002929688 94.07421875 800.002929688 c 2
260.419921875 800.002929688 m 1
 739.5859375 800.002929688 l 1
 739.5859375 -199.997070312 l 1
 260.419921875 -199.997070312 l 1
 260.419921875 800.002929688 l 1
760.416992188 800.002929688 m 1
 905.92578125 800.002929688 l 2
 958.04296875 800.002929688 1000 758.045898438 1000 705.928710938 c 2
 1000 310.420898438 l 1
 760.416992188 310.420898438 l 1
 760.416992188 800.002929688 l 1
0 289.583984375 m 1
 239.583007812 289.583984375 l 1
 239.583007812 -199.997070312 l 1
 94.07421875 -199.997070312 l 2
 41.95703125 -199.997070312 0 -158.040039062 0 -105.922851562 c 2
 0 289.583984375 l 1
760.416992188 289.583984375 m 1
 1000 289.583984375 l 1
 1000 -105.922851562 l 2
 1000 -158.040039062 958.04296875 -199.997070312 905.92578125 -199.997070312 c 2
 760.416992188 -199.997070312 l 1
 760.416992188 289.583984375 l 1
EndSplineSet
Validated: 524289
EndChar

StartChar: bracketleft
Encoding: 91 91 28
Width: 1000
Flags: H
LayerCount: 2
Fore
SplineSet
94.0771484375 800.002929688 m 2
 572.915039062 800.002929688 l 1
 572.915039062 -199.997070312 l 1
 94.0771484375 -199.997070312 l 2
 41.9599609375 -199.997070312 0.0029296875 -158.040039062 0.0029296875 -105.922851562 c 2
 0.0029296875 705.928710938 l 2
 0.0029296875 758.045898438 41.9599609375 800.002929688 94.0771484375 800.002929688 c 2
593.747070312 800.002929688 m 1
 905.922851562 800.002929688 l 2
 958.040039062 800.002929688 999.997070312 758.045898438 999.997070312 705.928710938 c 2
 999.997070312 -105.922851562 l 2
 999.997070312 -158.040039062 958.040039062 -199.997070312 905.922851562 -199.997070312 c 2
 593.747070312 -199.997070312 l 1
 593.747070312 800.002929688 l 1
685.598632812 471.456054688 m 1
 685.598632812 128.555664062 l 1
 755.189453125 128.555664062 l 2
 807.5546875 128.555664062 846.139648438 142.48828125 870.944335938 170.35546875 c 0
 895.749023438 198.22265625 908.150390625 241.32421875 908.150390625 299.661132812 c 0
 908.150390625 358.458007812 895.749023438 401.7890625 870.944335938 429.65625 c 0
 846.139648438 457.522460938 807.5546875 471.456054688 755.189453125 471.456054688 c 2
 685.598632812 471.456054688 l 1
732.221679688 433.331054688 m 1
 754.270507812 433.331054688 l 2
 773.41015625 433.331054688 789.870117188 430.95703125 803.650390625 426.2109375 c 0
 817.583007812 421.6171875 828.455078125 414.420898438 836.263671875 404.62109375 c 0
 851.575195312 385.635742188 859.23046875 350.801757812 859.23046875 300.120117188 c 0
 859.23046875 249.592773438 851.498046875 214.758789062 836.034179688 195.620117188 c 0
 820.72265625 176.327148438 793.467773438 166.680664062 754.270507812 166.680664062 c 2
 732.221679688 166.680664062 l 1
 732.221679688 433.331054688 l 1
EndSplineSet
Validated: 524289
EndChar

StartChar: backslash
Encoding: 92 92 29
Width: 1000
Flags: H
LayerCount: 2
Fore
SplineSet
94.07421875 800.002929688 m 2
 572.91796875 800.002929688 l 1
 572.91796875 -199.997070312 l 1
 94.07421875 -199.997070312 l 2
 41.95703125 -199.997070312 0 -158.040039062 0 -105.922851562 c 2
 0 705.928710938 l 2
 0 758.045898438 41.95703125 800.002929688 94.07421875 800.002929688 c 2
593.749023438 800.002929688 m 1
 905.92578125 800.002929688 l 2
 958.04296875 800.002929688 1000 758.045898438 1000 705.928710938 c 2
 1000 310.420898438 l 1
 593.749023438 310.420898438 l 1
 593.749023438 800.002929688 l 1
593.749023438 289.583984375 m 1
 781.248046875 289.583984375 l 1
 781.248046875 -199.997070312 l 1
 593.749023438 -199.997070312 l 1
 593.749023438 289.583984375 l 1
802.079101562 289.583984375 m 1
 1000 289.583984375 l 1
 1000 60.4228515625 l 1
 802.079101562 60.4228515625 l 1
 802.079101562 289.583984375 l 1
802.079101562 39.5859375 m 1
 885.416015625 39.5859375 l 1
 885.416015625 -199.997070312 l 1
 802.079101562 -199.997070312 l 1
 802.079101562 39.5859375 l 1
906.247070312 39.5859375 m 1
 1000 39.5859375 l 1
 1000 -64.58203125 l 1
 906.247070312 -64.58203125 l 1
 906.247070312 39.5859375 l 1
906.247070312 -85.4130859375 m 1
 1000 -85.4130859375 l 1
 1000 -105.922851562 l 2
 1000 -157.931640625 958.21484375 -199.818359375 906.247070312 -199.991210938 c 1
 906.247070312 -85.4130859375 l 1
EndSplineSet
Validated: 524289
EndChar

StartChar: bracketright
Encoding: 93 93 30
Width: 1000
Flags: H
LayerCount: 2
Fore
SplineSet
94.0771484375 800.002929688 m 2
 322.916992188 800.002929688 l 1
 322.916992188 477.083007812 l 1
 0.0029296875 477.083007812 l 1
 0.0029296875 705.928710938 l 2
 0.0029296875 758.045898438 41.9599609375 800.002929688 94.0771484375 800.002929688 c 2
343.748046875 800.002929688 m 1
 656.251953125 800.002929688 l 1
 656.251953125 477.083007812 l 1
 343.748046875 477.083007812 l 1
 343.748046875 800.002929688 l 1
677.083007812 800.002929688 m 1
 905.922851562 800.002929688 l 2
 958.040039062 800.002929688 999.997070312 758.045898438 999.997070312 705.928710938 c 2
 999.997070312 310.420898438 l 1
 677.083007812 310.420898438 l 1
 677.083007812 800.002929688 l 1
0.0029296875 456.251953125 m 1
 322.916992188 456.251953125 l 1
 322.916992188 143.75390625 l 1
 0.0029296875 143.75390625 l 1
 0.0029296875 456.251953125 l 1
343.748046875 456.251953125 m 1
 656.251953125 456.251953125 l 1
 656.251953125 143.75390625 l 1
 343.748046875 143.75390625 l 1
 343.748046875 456.251953125 l 1
677.083007812 289.583984375 m 1
 999.997070312 289.583984375 l 1
 999.997070312 -105.922851562 l 2
 999.997070312 -158.040039062 958.040039062 -199.997070312 905.922851562 -199.997070312 c 2
 677.083007812 -199.997070312 l 1
 677.083007812 289.583984375 l 1
0.0029296875 122.922851562 m 1
 322.916992188 122.922851562 l 1
 322.916992188 -199.997070312 l 1
 94.0771484375 -199.997070312 l 2
 41.9599609375 -199.997070312 0.0029296875 -158.040039062 0.0029296875 -105.922851562 c 2
 0.0029296875 122.922851562 l 1
343.748046875 122.922851562 m 1
 656.251953125 122.922851562 l 1
 656.251953125 -199.997070312 l 1
 343.748046875 -199.997070312 l 1
 343.748046875 122.922851562 l 1
EndSplineSet
Validated: 524289
EndChar

StartChar: asciicircum
Encoding: 94 94 31
Width: 1000
Flags: H
LayerCount: 2
Fore
SplineSet
94.0771484375 800.002929688 m 2
 572.915039062 800.002929688 l 1
 572.915039062 -199.997070312 l 1
 94.0771484375 -199.997070312 l 2
 41.9599609375 -199.997070312 0.0029296875 -158.040039062 0.0029296875 -105.922851562 c 2
 0.0029296875 705.928710938 l 2
 0.0029296875 758.045898438 41.9599609375 800.002929688 94.0771484375 800.002929688 c 2
593.751953125 800.002929688 m 1
 905.922851562 800.002929688 l 2
 958.040039062 800.002929688 999.997070312 758.045898438 999.997070312 705.928710938 c 2
 999.997070312 477.083007812 l 1
 593.751953125 477.083007812 l 1
 593.751953125 800.002929688 l 1
593.751953125 456.251953125 m 1
 999.997070312 456.251953125 l 1
 999.997070312 143.75390625 l 1
 593.751953125 143.75390625 l 1
 593.751953125 456.251953125 l 1
593.751953125 122.922851562 m 1
 999.997070312 122.922851562 l 1
 999.997070312 -105.922851562 l 2
 999.997070312 -158.040039062 958.040039062 -199.997070312 905.922851562 -199.997070312 c 2
 593.751953125 -199.997070312 l 1
 593.751953125 122.922851562 l 1
EndSplineSet
Validated: 524289
EndChar

StartChar: underscore
Encoding: 95 95 32
Width: 1000
Flags: H
LayerCount: 2
Fore
SplineSet
94.07421875 800 m 2
 905.92578125 800 l 2
 958.04296875 800 1000 758.04296875 1000 705.92578125 c 2
 1000 -105.919921875 l 2
 1000 -158.037109375 958.04296875 -199.994140625 905.92578125 -199.994140625 c 2
 94.07421875 -199.994140625 l 2
 41.95703125 -199.994140625 -0 -158.037109375 -0 -105.919921875 c 2
 -0 705.92578125 l 2
 -0 758.04296875 41.95703125 800 94.07421875 800 c 2
263.56640625 633.337890625 m 1
 263.56640625 -33.33203125 l 1
 346.622070312 -33.33203125 l 1
 346.622070312 555.639648438 l 1
 465.844726562 204.223632812 l 1
 534.161132812 204.223632812 l 1
 652.935546875 555.639648438 l 1
 652.935546875 -33.33203125 l 1
 736.439453125 -33.33203125 l 1
 736.439453125 633.337890625 l 1
 615.430664062 633.337890625 l 1
 499.331054688 293.974609375 l 1
 384.126953125 633.337890625 l 1
 263.56640625 633.337890625 l 1
EndSplineSet
Validated: 524289
EndChar

StartChar: grave
Encoding: 96 96 33
Width: 1000
Flags: H
LayerCount: 2
Fore
SplineSet
905.922851562 -199.997070312 m 2
 427.084960938 -199.997070312 l 1
 427.084960938 800.002929688 l 1
 905.922851562 800.002929688 l 2
 958.040039062 800.002929688 999.997070312 758.045898438 999.997070312 705.928710938 c 2
 999.997070312 -105.922851562 l 2
 999.997070312 -158.040039062 958.040039062 -199.997070312 905.922851562 -199.997070312 c 2
406.248046875 -199.997070312 m 1
 94.0771484375 -199.997070312 l 2
 41.9599609375 -199.997070312 0.0029296875 -158.040039062 0.0029296875 -105.922851562 c 2
 0.0029296875 122.922851562 l 1
 406.248046875 122.922851562 l 1
 406.248046875 -199.997070312 l 1
406.248046875 143.75390625 m 1
 0.0029296875 143.75390625 l 1
 0.0029296875 456.251953125 l 1
 406.248046875 456.251953125 l 1
 406.248046875 143.75390625 l 1
406.248046875 477.083007812 m 1
 0.0029296875 477.083007812 l 1
 0.0029296875 705.928710938 l 2
 0.0029296875 758.045898438 41.9599609375 800.002929688 94.0771484375 800.002929688 c 2
 406.248046875 800.002929688 l 1
 406.248046875 477.083007812 l 1
EndSplineSet
Validated: 524289
EndChar

StartChar: b
Encoding: 98 98 34
Width: 1000
Flags: H
LayerCount: 2
Fore
SplineSet
94.07421875 800.002929688 m 2
 571.701171875 800.002929688 l 1
 571.701171875 -199.997070312 l 1
 94.07421875 -199.997070312 l 2
 41.95703125 -199.997070312 0 -158.040039062 0 -105.922851562 c 2
 0 705.928710938 l 2
 0 758.045898438 41.95703125 800.002929688 94.07421875 800.002929688 c 2
592.532226562 800.002929688 m 1
 905.92578125 800.002929688 l 2
 958.04296875 800.002929688 1000 758.045898438 1000 705.928710938 c 2
 1000 310.420898438 l 1
 592.532226562 310.420898438 l 1
 592.532226562 800.002929688 l 1
592.532226562 289.583984375 m 1
 697.91796875 289.583984375 l 1
 697.91796875 -22.9140625 l 1
 592.532226562 -22.9140625 l 1
 592.532226562 289.583984375 l 1
718.749023438 289.583984375 m 1
 1000 289.583984375 l 1
 1000 143.75390625 l 1
 718.749023438 143.75390625 l 1
 718.749023438 289.583984375 l 1
718.749023438 122.916992188 m 1
 864.584960938 122.916992188 l 1
 864.584960938 -22.9140625 l 1
 718.749023438 -22.9140625 l 1
 718.749023438 122.916992188 l 1
885.416015625 122.916992188 m 1
 1000 122.916992188 l 1
 1000 -105.922851562 l 2
 1000 -158.040039062 958.04296875 -199.997070312 905.92578125 -199.997070312 c 2
 885.416015625 -199.997070312 l 1
 885.416015625 122.916992188 l 1
592.532226562 -43.7451171875 m 1
 864.584960938 -43.7451171875 l 1
 864.584960938 -199.997070312 l 1
 592.532226562 -199.997070312 l 1
 592.532226562 -43.7451171875 l 1
EndSplineSet
Validated: 524289
EndChar

StartChar: c
Encoding: 99 99 35
Width: 1000
Flags: H
LayerCount: 2
Fore
SplineSet
94.07421875 800.002929688 m 2
 905.92578125 800.002929688 l 2
 958.04296875 800.002929688 1000 758.045898438 1000 705.928710938 c 2
 1000 227.084960938 l 1
 0 227.084960938 l 1
 0 705.928710938 l 2
 0 758.045898438 41.95703125 800.002929688 94.07421875 800.002929688 c 2
0 206.252929688 m 1
 1000 206.252929688 l 1
 1000 18.7548828125 l 1
 0 18.7548828125 l 1
 0 206.252929688 l 1
0 -2.0771484375 m 1
 1000 -2.0771484375 l 1
 1000 -105.922851562 l 2
 1000 -158.040039062 958.04296875 -199.997070312 905.92578125 -199.997070312 c 2
 94.07421875 -199.997070312 l 2
 41.95703125 -199.997070312 0 -158.040039062 0 -105.922851562 c 2
 0 -2.0771484375 l 1
EndSplineSet
Validated: 524289
EndChar

StartChar: zero
Encoding: 48 48 36
Width: 1000
Flags: H
LayerCount: 2
Fore
SplineSet
94.07421875 800.002929688 m 2
 905.92578125 800.002929688 l 2
 958.04296875 800.002929688 1000 758.045898438 1000 705.928710938 c 2
 1000 -105.922851562 l 2
 1000 -158.040039062 958.04296875 -199.997070312 905.92578125 -199.997070312 c 2
 94.07421875 -199.997070312 l 2
 41.95703125 -199.997070312 -0 -158.040039062 -0 -105.922851562 c 2
 -0 705.928710938 l 2
 -0 758.045898438 41.95703125 800.002929688 94.07421875 800.002929688 c 2
499.784179688 633.334960938 m 0
 430.922851562 633.334960938 379.134765625 605.21875 344.416992188 548.982421875 c 0
 309.412109375 492.458007812 291.908203125 409.392578125 291.908203125 299.787109375 c 0
 291.908203125 190.469726562 309.412109375 107.552734375 344.416992188 51.029296875 c 0
 379.134765625 -5.2080078125 430.922851562 -33.3291015625 499.784179688 -33.3291015625 c 0
 568.359375 -33.3291015625 620.291015625 -5.2080078125 655.583007812 51.029296875 c 0
 672.798828125 78.57421875 685.853515625 112.858398438 694.748046875 153.887695312 c 0
 703.642578125 194.91796875 708.091796875 243.55078125 708.091796875 299.787109375 c 0
 708.091796875 356.024414062 703.642578125 404.657226562 694.748046875 445.686523438 c 0
 685.853515625 487.00390625 672.798828125 521.4375 655.583007812 548.982421875 c 0
 620.578125 605.21875 568.646484375 633.334960938 499.784179688 633.334960938 c 0
499.784179688 564.473632812 m 0
 540.814453125 564.473632812 571.23046875 542.525390625 591.02734375 498.626953125 c 0
 610.825195312 455.587890625 620.724609375 389.307617188 620.724609375 299.787109375 c 0
 620.724609375 210.5546875 610.825195312 144.274414062 591.02734375 100.948242188 c 0
 571.23046875 57.3359375 540.814453125 35.5322265625 499.784179688 35.5322265625 c 0
 459.615234375 35.5322265625 429.487304688 57.3359375 409.403320312 100.948242188 c 0
 389.318359375 143.700195312 379.28125 209.98046875 379.28125 299.787109375 c 0
 379.28125 345.982421875 381.71875 385.291015625 386.596679688 417.712890625 c 0
 391.760742188 450.421875 399.360351562 477.538085938 409.403320312 499.056640625 c 0
 429.200195312 542.668945312 459.328125 564.473632812 499.784179688 564.473632812 c 0
498.922851562 450.854492188 m 0
 484.864257812 450.854492188 473.677734375 430.337890625 465.356445312 389.30859375 c 0
 461.9140625 373.52734375 459.614257812 356.7421875 458.466796875 338.952148438 c 0
 457.318359375 321.163085938 456.75 308.827148438 456.75 301.94140625 c 0
 456.75 292.185546875 457.606445312 277.98046875 459.328125 259.331054688 c 0
 461.3359375 240.680664062 463.779296875 224.7578125 466.6484375 211.55859375 c 0
 470.091796875 194.91796875 474.248046875 180.430664062 479.125976562 168.09375 c 0
 484.290039062 155.755859375 491.46484375 149.586914062 500.646484375 149.586914062 c 0
 517.000976562 149.586914062 528.767578125 170.529296875 535.940429688 212.419921875 c 0
 538.809570312 230.208984375 540.672851562 247.5703125 541.533203125 264.498046875 c 0
 542.680664062 281.426757812 543.255859375 292.756835938 543.255859375 298.49609375 c 0
 543.255859375 308.250976562 542.393554688 322.024414062 540.671875 339.813476562 c 0
 538.950195312 357.602539062 536.657226562 373.669921875 533.788085938 388.016601562 c 0
 529.770507812 408.100585938 524.890625 423.598632812 519.151367188 434.501953125 c 0
 513.700195312 445.405273438 506.95703125 450.854492188 498.922851562 450.854492188 c 0
EndSplineSet
Validated: 524289
EndChar

StartChar: one
Encoding: 49 49 37
Width: 1000
Flags: H
LayerCount: 2
Fore
SplineSet
94.0771484375 800.002929688 m 2
 905.922851562 800.002929688 l 2
 958.040039062 800.002929688 999.997070312 758.045898438 999.997070312 705.928710938 c 2
 999.997070312 -105.922851562 l 2
 999.997070312 -158.040039062 958.040039062 -199.997070312 905.922851562 -199.997070312 c 2
 94.0771484375 -199.997070312 l 2
 41.9599609375 -199.997070312 0.0029296875 -158.040039062 0.0029296875 -105.922851562 c 2
 0.0029296875 705.928710938 l 2
 0.0029296875 758.045898438 41.9599609375 800.002929688 94.0771484375 800.002929688 c 2
462.936523438 633.334960938 m 1
 308.435546875 459.639648438 l 1
 357.557617188 399.803710938 l 1
 463.83203125 520.8125 l 1
 463.83203125 42.5830078125 l 1
 323.623046875 42.5830078125 l 1
 323.623046875 -33.3291015625 l 1
 691.55859375 -33.3291015625 l 1
 691.55859375 42.5830078125 l 1
 553.134765625 42.5830078125 l 1
 553.134765625 633.334960938 l 1
 462.936523438 633.334960938 l 1
EndSplineSet
Validated: 524289
EndChar

StartChar: two
Encoding: 50 50 38
Width: 1000
Flags: H
LayerCount: 2
Fore
SplineSet
94.07421875 800.002929688 m 2
 905.92578125 800.002929688 l 2
 958.04296875 800.002929688 1000 758.045898438 1000 705.928710938 c 2
 1000 -105.922851562 l 2
 1000 -158.040039062 958.04296875 -199.997070312 905.92578125 -199.997070312 c 2
 94.07421875 -199.997070312 l 2
 41.95703125 -199.997070312 0 -158.040039062 0 -105.922851562 c 2
 0 705.928710938 l 2
 0 758.045898438 41.95703125 800.002929688 94.07421875 800.002929688 c 2
481.359375 633.334960938 m 0
 452.99609375 633.334960938 424.33984375 629.68359375 395.392578125 622.374023438 c 0
 365.860351562 615.064453125 336.184570312 604.243164062 306.360351562 589.916015625 c 2
 306.360351562 500.440429688 l 1
 371.564453125 539.330078125 430.334960938 558.77734375 482.673828125 558.77734375 c 0
 520.393554688 558.77734375 550.069335938 548.39453125 571.70703125 527.633789062 c 0
 593.051757812 507.166015625 603.728515625 478.803710938 603.728515625 442.545898438 c 0
 603.728515625 419.739257812 598.608398438 396.93359375 588.375 374.126953125 c 0
 582.52734375 361.26171875 574.924804688 348.251953125 565.568359375 335.09375 c 0
 556.50390625 321.935546875 544.2265625 306.000976562 528.728515625 287.288085938 c 0
 523.173828125 280.5625 517.759765625 274.129882812 512.497070312 267.989257812 c 0
 507.233398438 262.141601562 499.48828125 253.658203125 489.25390625 242.547851562 c 2
 444.513671875 193.862304688 l 2
 418.490234375 165.5 394.078125 139.1875 371.271484375 114.918945312 c 0
 348.463867188 90.94140625 328.728515625 70.1806640625 312.061523438 52.63671875 c 0
 304.751953125 45.3271484375 301.094726562 36.2626953125 301.094726562 25.443359375 c 2
 301.094726562 -33.3291015625 l 1
 698.899414062 -33.3291015625 l 1
 698.899414062 41.2333984375 l 1
 393.641601562 41.2333984375 l 1
 413.232421875 61.994140625 429.749023438 79.2421875 443.19921875 92.984375 c 0
 456.94140625 107.01953125 469.076171875 119.154296875 479.602539062 129.387695312 c 0
 490.127929688 139.9140625 500.07421875 150.00390625 509.430664062 159.653320312 c 0
 519.080078125 169.301757812 529.45703125 180.123046875 540.568359375 192.111328125 c 0
 556.065429688 208.778320312 569.662109375 223.6875 581.358398438 236.845703125 c 0
 593.0546875 250.00390625 603.143554688 261.555664062 611.624023438 271.498046875 c 0
 627.413085938 290.50390625 640.278320312 306.875976562 650.219726562 320.619140625 c 0
 660.454101562 334.654296875 668.787109375 348.982421875 675.219726562 363.602539062 c 0
 688.084960938 392.548828125 694.518554688 421.349609375 694.518554688 450.004882812 c 0
 694.518554688 478.075195312 689.254882812 503.21875 678.728515625 525.440429688 c 0
 668.202148438 547.955078125 654.166992188 566.965820312 636.623046875 582.462890625 c 0
 616.740234375 600.006835938 593.491210938 612.872070312 566.8828125 621.05859375 c 0
 540.275390625 629.24609375 511.768554688 633.334960938 481.359375 633.334960938 c 0
EndSplineSet
Validated: 524289
EndChar

StartChar: three
Encoding: 51 51 39
Width: 1000
Flags: H
LayerCount: 2
Fore
SplineSet
94.0771484375 800.002929688 m 2
 905.922851562 800.002929688 l 2
 958.040039062 800.002929688 999.997070312 758.045898438 999.997070312 705.928710938 c 2
 999.997070312 -105.922851562 l 2
 999.997070312 -158.040039062 958.040039062 -199.997070312 905.922851562 -199.997070312 c 2
 94.0771484375 -199.997070312 l 2
 41.9599609375 -199.997070312 0.0029296875 -158.040039062 0.0029296875 -105.922851562 c 2
 0.0029296875 705.928710938 l 2
 0.0029296875 758.045898438 41.9599609375 800.002929688 94.0771484375 800.002929688 c 2
482.35546875 633.334960938 m 0
 459.401367188 633.334960938 435.154296875 631.041015625 409.618164062 626.450195312 c 0
 382.647460938 621.859375 351.663085938 614.973632812 316.658203125 605.791992188 c 2
 316.658203125 525.739257812 l 1
 346.211914062 537.502929688 374.758789062 546.114257812 402.303710938 551.56640625 c 0
 430.421875 557.3046875 456.387695312 560.172851562 480.202148438 560.172851562 c 0
 520.37109375 560.172851562 550.5 551.41796875 570.583984375 533.916015625 c 0
 591.243164062 516.413085938 601.573242188 491.453125 601.573242188 459.03125 c 0
 601.573242188 426.608398438 590.524414062 401.791992188 568.430664062 384.577148438 c 0
 546.337890625 367.07421875 515.06640625 358.319335938 474.610351562 358.319335938 c 2
 408.326171875 358.319335938 l 1
 408.326171875 286.879882812 l 1
 474.610351562 286.879882812 l 2
 518.795898438 286.879882812 553.51171875 275.974609375 578.760742188 254.168945312 c 0
 604.009765625 232.362304688 616.633789062 202.234375 616.633789062 163.787109375 c 0
 616.633789062 124.478515625 603.866210938 93.919921875 578.330078125 72.11328125 c 0
 553.081054688 50.59375 516.497070312 39.8388671875 468.581054688 39.8388671875 c 0
 454.234375 39.8388671875 440.036132812 40.6953125 425.9765625 42.4169921875 c 0
 412.204101562 44.4248046875 398.143554688 47.2998046875 383.796875 51.029296875 c 0
 368.876953125 55.0458984375 354.385742188 60.064453125 340.326171875 66.08984375 c 0
 326.266601562 72.115234375 311.923828125 78.8583984375 297.291015625 86.318359375 c 1
 297.291015625 -1.4794921875 l 2
 312.78515625 -6.931640625 328.420898438 -11.66796875 344.202148438 -15.6845703125 c 0
 359.982421875 -19.7021484375 374.46875 -22.857421875 387.666992188 -25.1533203125 c 0
 403.161132812 -28.0224609375 418.372070312 -30.0283203125 433.291992188 -31.17578125 c 0
 448.499023438 -32.6103515625 462.985351562 -33.3291015625 476.756835938 -33.3291015625 c 0
 513.196289062 -33.3291015625 545.192382812 -29.0234375 572.737304688 -20.416015625 c 0
 600.569335938 -11.80859375 624.235351562 0.8154296875 643.74609375 17.45703125 c 0
 683.0546875 51.3134765625 702.708984375 97.5087890625 702.708984375 156.041015625 c 0
 702.708984375 176.700195312 699.984375 196.06640625 694.532226562 214.142578125 c 0
 689.368164062 232.21875 680.90625 248.716796875 669.142578125 263.637695312 c 0
 646.762695312 292.04296875 614.484375 311.840820312 572.306640625 323.030273438 c 1
 610.180664062 333.073242188 638.87109375 349.71484375 658.381835938 372.955078125 c 0
 667.850585938 384.432617188 675.024414062 397.487304688 679.90234375 412.120117188 c 0
 685.067382812 426.752929688 687.6484375 443.395507812 687.6484375 462.044921875 c 0
 687.6484375 514.265625 669.143554688 555.723632812 632.130859375 586.424804688 c 0
 613.193359375 602.205078125 590.953125 613.97265625 565.416015625 621.719726562 c 0
 540.166992188 629.466796875 512.482421875 633.334960938 482.35546875 633.334960938 c 0
EndSplineSet
Validated: 524289
EndChar

StartChar: four
Encoding: 52 52 40
Width: 1000
Flags: H
LayerCount: 2
Fore
SplineSet
94.07421875 800.002929688 m 2
 905.92578125 800.002929688 l 2
 958.04296875 800.002929688 1000 758.045898438 1000 705.928710938 c 2
 1000 -105.922851562 l 2
 1000 -158.040039062 958.04296875 -199.997070312 905.92578125 -199.997070312 c 2
 94.07421875 -199.997070312 l 2
 41.95703125 -199.997070312 0 -158.040039062 0 -105.922851562 c 2
 0 705.928710938 l 2
 0 758.045898438 41.95703125 800.002929688 94.07421875 800.002929688 c 2
537.284179688 633.334960938 m 1
 269.366210938 210.921875 l 1
 269.366210938 125.6328125 l 1
 552.017578125 125.6328125 l 1
 552.017578125 -33.3291015625 l 1
 641.774414062 -33.3291015625 l 1
 641.774414062 125.6328125 l 1
 730.62890625 125.6328125 l 1
 730.62890625 198.864257812 l 1
 641.774414062 198.864257812 l 1
 641.774414062 633.334960938 l 1
 537.284179688 633.334960938 l 1
552.017578125 551.17578125 m 1
 552.017578125 198.864257812 l 1
 341.70703125 198.864257812 l 1
 552.017578125 551.17578125 l 1
EndSplineSet
Validated: 524289
EndChar

StartChar: five
Encoding: 53 53 41
Width: 1000
Flags: H
LayerCount: 2
Fore
SplineSet
94.0771484375 800.002929688 m 2
 905.922851562 800.002929688 l 2
 958.040039062 800.002929688 999.997070312 758.045898438 999.997070312 705.928710938 c 2
 999.997070312 -105.922851562 l 2
 999.997070312 -158.040039062 958.040039062 -199.997070312 905.922851562 -199.997070312 c 2
 94.0771484375 -199.997070312 l 2
 41.9599609375 -199.997070312 0.0029296875 -158.040039062 0.0029296875 -105.922851562 c 2
 0.0029296875 705.928710938 l 2
 0.0029296875 758.045898438 41.9599609375 800.002929688 94.0771484375 800.002929688 c 2
325.23046875 633.334960938 m 1
 325.23046875 304.823242188 l 1
 345.379882812 315.627929688 366.842773438 323.803710938 389.619140625 329.352539062 c 0
 411.8125 334.608398438 434.296875 337.235351562 457.07421875 337.235351562 c 0
 483.647460938 337.235351562 506.571289062 333.73046875 525.84375 326.72265625 c 0
 545.1171875 319.713867188 560.885742188 310.37109375 573.150390625 298.69140625 c 0
 585.70703125 286.71875 595.6328125 271.676757812 602.93359375 253.571289062 c 0
 610.233398438 235.466796875 613.8828125 213.715820312 613.8828125 188.310546875 c 0
 613.8828125 141.879882812 600.741210938 105.669921875 574.459960938 79.6806640625 c 0
 548.762695312 53.9833984375 510.364257812 41.1357421875 459.26171875 41.1357421875 c 0
 432.396484375 41.1357421875 405.384765625 44.7861328125 378.227539062 52.0859375 c 0
 351.654296875 59.0947265625 324.642578125 69.8974609375 297.193359375 84.498046875 c 1
 297.193359375 -5.2978515625 l 2
 308.874023438 -9.9697265625 320.994140625 -14.05859375 333.55078125 -17.5625 c 0
 346.107421875 -21.06640625 359.83203125 -23.982421875 374.725585938 -26.318359375 c 0
 389.034179688 -28.654296875 404.219726562 -30.41015625 420.280273438 -31.578125 c 0
 436.633789062 -32.74609375 451.380859375 -33.3291015625 464.521484375 -33.3291015625 c 0
 503.943359375 -33.3291015625 538.109375 -28.36328125 567.018554688 -18.435546875 c 0
 596.219726562 -8.21484375 620.892578125 6.5322265625 641.041992188 25.8056640625 c 0
 682.215820312 65.51953125 702.80078125 120.270507812 702.80078125 190.061523438 c 0
 702.80078125 258.100585938 683.09375 311.979492188 643.671875 351.693359375 c 0
 625.274414062 370.08984375 602.639648438 384.6875 575.774414062 395.4921875 c 0
 548.909179688 406.296875 517.809570312 411.701171875 482.475585938 411.701171875 c 0
 467.875 411.701171875 455.02734375 410.678710938 443.931640625 408.634765625 c 0
 431.08203125 406.298828125 418.37890625 402.793945312 405.823242188 398.122070312 c 1
 405.823242188 558.875 l 1
 656.373046875 558.875 l 1
 656.373046875 633.334960938 l 1
 325.23046875 633.334960938 l 1
EndSplineSet
Validated: 524289
EndChar

StartChar: six
Encoding: 54 54 42
Width: 1000
Flags: H
LayerCount: 2
Fore
SplineSet
94.07421875 800.002929688 m 2
 905.92578125 800.002929688 l 2
 958.04296875 800.002929688 1000 758.045898438 1000 705.928710938 c 2
 1000 -105.922851562 l 2
 1000 -158.040039062 958.04296875 -199.997070312 905.92578125 -199.997070312 c 2
 94.07421875 -199.997070312 l 2
 41.95703125 -199.997070312 0 -158.040039062 0 -105.922851562 c 2
 0 705.928710938 l 2
 0 758.045898438 41.95703125 800.002929688 94.07421875 800.002929688 c 2
535.073242188 633.334960938 m 0
 456.45703125 633.334960938 396.200195312 605.21875 354.310546875 548.982421875 c 0
 312.706054688 492.745117188 291.908203125 406.666992188 291.908203125 290.75 c 0
 291.908203125 238.243164062 296.0703125 191.616210938 304.390625 150.873046875 c 0
 312.998046875 110.130859375 326.334960938 75.703125 344.411132812 47.583984375 c 0
 361.33984375 21.474609375 382.862304688 1.388671875 408.971679688 -12.669921875 c 0
 435.08203125 -26.4423828125 467.791015625 -33.3291015625 507.099609375 -33.3291015625 c 0
 571.657226562 -33.3291015625 621.295898438 -14.25 656.013671875 23.91015625 c 0
 690.731445312 62.0712890625 708.0859375 116.159179688 708.0859375 186.168945312 c 0
 708.0859375 255.030273438 690.875 308.537109375 656.444335938 346.698242188 c 0
 622.30078125 384.859375 575.673828125 403.944335938 516.568359375 403.944335938 c 0
 482.998046875 403.944335938 453.875976562 396.338867188 429.200195312 381.131835938 c 0
 404.811523438 365.637695312 385.732421875 343.546875 371.9609375 314.854492188 c 1
 371.9609375 395.192382812 386.159179688 456.305664062 414.564453125 498.196289062 c 0
 442.68359375 539.512695312 484.721679688 560.172851562 540.671875 560.172851562 c 0
 550.713867188 560.172851562 561.182617188 559.454101562 572.0859375 558.01953125 c 0
 582.98828125 556.872070312 593.461914062 554.866210938 603.504882812 551.997070312 c 0
 623.588867188 546.544921875 642.8125 538.365234375 661.17578125 527.461914062 c 1
 661.17578125 607.513671875 l 2
 651.994140625 611.244140625 642.239257812 614.831054688 631.909179688 618.274414062 c 0
 621.8671875 621.717773438 611.111328125 624.5859375 599.634765625 626.880859375 c 0
 590.453125 628.889648438 580.266601562 630.470703125 569.077148438 631.618164062 c 0
 558.173828125 632.766601562 546.837890625 633.334960938 535.073242188 633.334960938 c 0
507.530273438 335.944335938 m 0
 525.319335938 335.944335938 541.530273438 332.92578125 556.163085938 326.900390625 c 0
 570.796875 320.875 583.1328125 311.263671875 593.174804688 298.065429688 c 0
 612.686523438 272.529296875 622.44140625 234.9453125 622.44140625 185.307617188 c 0
 622.44140625 135.95703125 612.686523438 98.5107421875 593.174804688 72.974609375 c 0
 573.951171875 47.4384765625 545.260742188 34.6708984375 507.099609375 34.6708984375 c 0
 487.301757812 34.6708984375 470.084960938 38.1142578125 455.452148438 45.0009765625 c 0
 440.819335938 52.173828125 428.626953125 61.9287109375 418.87109375 74.2666015625 c 0
 408.829101562 86.890625 400.935546875 102.3828125 395.197265625 120.74609375 c 0
 389.74609375 139.396484375 387.021484375 160.918945312 387.021484375 185.307617188 c 0
 387.021484375 209.696289062 389.74609375 231.069335938 395.197265625 249.431640625 c 0
 400.935546875 268.08203125 408.829101562 283.723632812 418.87109375 296.348632812 c 0
 428.626953125 308.685546875 440.819335938 318.296875 455.452148438 325.18359375 c 0
 470.084960938 332.356445312 487.4453125 335.944335938 507.530273438 335.944335938 c 0
EndSplineSet
Validated: 524289
EndChar

StartChar: seven
Encoding: 55 55 43
Width: 1000
Flags: H
LayerCount: 2
Fore
SplineSet
94.0771484375 800.002929688 m 2
 905.922851562 800.002929688 l 2
 958.040039062 800.002929688 999.997070312 758.045898438 999.997070312 705.928710938 c 2
 999.997070312 -105.922851562 l 2
 999.997070312 -158.040039062 958.040039062 -199.997070312 905.922851562 -199.997070312 c 2
 94.0771484375 -199.997070312 l 2
 41.9599609375 -199.997070312 0.0029296875 -158.040039062 0.0029296875 -105.922851562 c 2
 0.0029296875 705.928710938 l 2
 0.0029296875 758.045898438 41.9599609375 800.002929688 94.0771484375 800.002929688 c 2
317.599609375 585.752929688 m 1
 317.599609375 520.680664062 l 1
 591.294921875 520.680664062 l 1
 392.243164062 14.2529296875 l 1
 473.013671875 14.2529296875 l 1
 677.421875 552.834960938 l 1
 677.421875 585.752929688 l 1
 317.599609375 585.752929688 l 1
EndSplineSet
Validated: 524289
EndChar

StartChar: eight
Encoding: 56 56 44
Width: 1000
Flags: H
LayerCount: 2
Fore
SplineSet
94.0771484375 800.002929688 m 2
 905.922851562 800.002929688 l 2
 958.040039062 800.002929688 999.997070312 758.045898438 999.997070312 705.928710938 c 2
 999.997070312 -105.922851562 l 2
 999.997070312 -158.040039062 958.040039062 -199.997070312 905.922851562 -199.997070312 c 2
 94.0771484375 -199.997070312 l 2
 41.9599609375 -199.997070312 0.0029296875 -158.040039062 0.0029296875 -105.922851562 c 2
 0.0029296875 705.928710938 l 2
 0.0029296875 758.045898438 41.9599609375 800.002929688 94.0771484375 800.002929688 c 2
499.787109375 633.334960938 m 0
 469.086914062 633.334960938 441.970703125 629.466796875 418.443359375 621.719726562 c 0
 395.202148438 614.259765625 375.1171875 603.2109375 358.188476562 588.578125 c 0
 323.470703125 558.1640625 306.110351562 518.13671875 306.110351562 468.499023438 c 0
 306.110351562 450.422851562 308.553710938 433.349609375 313.431640625 417.282226562 c 0
 318.595703125 401.21484375 326.626953125 386.44140625 337.529296875 372.955078125 c 0
 347.858398438 360.043945312 360.482421875 349.138671875 375.40234375 340.244140625 c 0
 390.323242188 331.349609375 406.533203125 324.750976562 424.036132812 320.446289062 c 1
 380.997070312 310.978515625 348.14453125 291.8984375 325.477539062 263.20703125 c 0
 302.5234375 234.227539062 291.049804688 196.924804688 291.049804688 151.3046875 c 0
 291.049804688 92.4853515625 309.41015625 47.0087890625 346.13671875 14.873046875 c 0
 383.149414062 -17.2626953125 434.225585938 -33.3291015625 499.357421875 -33.3291015625 c 0
 564.775390625 -33.3291015625 616.1328125 -17.1181640625 653.432617188 15.3037109375 c 0
 671.221679688 30.7978515625 684.8515625 49.876953125 694.3203125 72.5439453125 c 0
 704.075195312 95.498046875 708.950195312 122.0390625 708.950195312 152.166015625 c 0
 708.950195312 197.499023438 697.620117188 234.513671875 674.953125 263.20703125 c 0
 652.286132812 291.8984375 619.2890625 310.978515625 575.963867188 320.446289062 c 1
 613.55078125 330.202148438 642.529296875 347.706054688 662.901367188 372.955078125 c 0
 683.559570312 398.491210938 693.889648438 430.194335938 693.889648438 468.068359375 c 0
 693.889648438 518.853515625 676.529296875 559.024414062 641.811523438 588.578125 c 0
 607.09375 618.41796875 559.754882812 633.334960938 499.787109375 633.334960938 c 0
499.787109375 566.196289062 m 0
 535.079101562 566.196289062 561.901367188 557.015625 580.264648438 538.65234375 c 0
 598.340820312 520.2890625 607.3828125 493.604492188 607.3828125 458.600585938 c 0
 607.3828125 424.169921875 598.197265625 397.916015625 579.833984375 379.83984375 c 0
 561.470703125 361.763671875 534.791992188 352.7265625 499.787109375 352.7265625 c 0
 465.069335938 352.7265625 438.529296875 361.763671875 420.166015625 379.83984375 c 0
 401.802734375 397.916015625 392.6171875 424.169921875 392.6171875 458.600585938 c 0
 392.6171875 493.604492188 401.802734375 520.2890625 420.166015625 538.65234375 c 0
 438.529296875 557.015625 465.069335938 566.196289062 499.787109375 566.196289062 c 0
499.787109375 284.295898438 m 0
 538.235351562 284.295898438 568.213867188 273.391601562 589.732421875 251.584960938 c 0
 599.775390625 241.54296875 607.524414062 228.918945312 612.975585938 213.711914062 c 0
 618.71484375 198.504882812 621.583007812 180.288085938 621.583007812 159.055664062 c 0
 621.583007812 120.034179688 610.965820312 89.4755859375 589.732421875 67.3818359375 c 0
 568.788085938 45.576171875 539.234375 34.6708984375 501.073242188 34.6708984375 c 0
 462.338867188 34.6708984375 432.073242188 45.7197265625 410.266601562 67.8125 c 0
 389.034179688 89.90625 378.416992188 120.74609375 378.416992188 160.341796875 c 0
 378.416992188 199.650390625 389.034179688 230.209960938 410.266601562 252.015625 c 0
 431.499023438 273.53515625 461.33984375 284.295898438 499.787109375 284.295898438 c 0
EndSplineSet
Validated: 524289
EndChar

StartChar: nine
Encoding: 57 57 45
Width: 1000
Flags: H
LayerCount: 2
Fore
SplineSet
94.07421875 800.002929688 m 2
 905.92578125 800.002929688 l 2
 958.04296875 800.002929688 1000 758.045898438 1000 705.928710938 c 2
 1000 -105.922851562 l 2
 1000 -158.040039062 958.04296875 -199.997070312 905.92578125 -199.997070312 c 2
 94.07421875 -199.997070312 l 2
 41.95703125 -199.997070312 0 -158.040039062 0 -105.922851562 c 2
 0 705.928710938 l 2
 0 758.045898438 41.95703125 800.002929688 94.07421875 800.002929688 c 2
492.900390625 633.334960938 m 0
 428.055664062 633.334960938 378.560546875 614.54296875 344.416992188 576.956054688 c 0
 326.340820312 557.4453125 312.999023438 533.7734375 304.390625 505.94140625 c 0
 296.0703125 478.396484375 291.908203125 447.700195312 291.908203125 413.842773438 c 0
 291.908203125 345.268554688 308.981445312 291.754882812 343.125 253.307617188 c 0
 377.268554688 215.146484375 423.607421875 196.067382812 482.139648438 196.067382812 c 0
 517.431640625 196.067382812 546.984375 203.666992188 570.799804688 218.874023438 c 0
 581.989257812 226.046875 592.606445312 235.233398438 602.649414062 246.422851562 c 0
 612.69140625 257.61328125 621.009765625 270.524414062 627.608398438 285.157226562 c 1
 627.608398438 205.10546875 613.547851562 144.131835938 585.4296875 102.240234375 c 0
 557.024414062 60.63671875 515.134765625 39.8388671875 459.758789062 39.8388671875 c 0
 438.813476562 39.8388671875 417.721679688 42.70703125 396.489257812 48.4453125 c 0
 376.118164062 53.896484375 356.89453125 61.927734375 338.818359375 72.5439453125 c 1
 338.818359375 -7.5087890625 l 2
 360.912109375 -16.4033203125 381.427734375 -22.8583984375 400.365234375 -26.8759765625 c 0
 410.407226562 -29.1708984375 420.880859375 -30.74609375 431.784179688 -31.6064453125 c 0
 442.974609375 -32.7548828125 453.879882812 -33.3291015625 464.495117188 -33.3291015625 c 0
 543.399414062 -33.3291015625 603.936523438 -4.92578125 646.114257812 51.884765625 c 0
 667.633789062 80.8642578125 683.26953125 116.729492188 693.025390625 159.48046875 c 0
 703.067382812 202.232421875 708.091796875 252.014648438 708.091796875 308.825195312 c 0
 708.091796875 360.471679688 703.9296875 406.810546875 695.609375 447.83984375 c 0
 687.288085938 488.870117188 673.946289062 523.735351562 655.583007812 552.426757812 c 0
 638.654296875 578.537109375 617.137695312 598.47265625 591.02734375 612.245117188 c 0
 564.91796875 626.3046875 532.208984375 633.334960938 492.900390625 633.334960938 c 0
492.469726562 565.334960938 m 0
 512.553710938 565.334960938 529.909179688 561.748046875 544.541992188 554.575195312 c 0
 559.174804688 547.688476562 571.373046875 538.077148438 581.12890625 525.739257812 c 0
 602.07421875 499.342773438 612.547851562 462.333984375 612.547851562 414.704101562 c 0
 612.547851562 367.075195312 602.07421875 330.060546875 581.12890625 303.663085938 c 0
 571.373046875 291.325195312 559.174804688 281.5703125 544.541992188 274.397460938 c 0
 529.909179688 267.510742188 512.553710938 264.067382812 492.469726562 264.067382812 c 0
 454.30859375 264.067382812 425.755859375 276.69140625 406.819335938 301.94140625 c 0
 387.307617188 327.4765625 377.552734375 365.06640625 377.552734375 414.704101562 c 0
 377.552734375 464.341796875 387.307617188 501.92578125 406.819335938 527.461914062 c 0
 416.861328125 540.66015625 429.203125 550.271484375 443.8359375 556.296875 c 0
 458.469726562 562.322265625 474.680664062 565.334960938 492.469726562 565.334960938 c 0
EndSplineSet
Validated: 524289
EndChar
